<?xml version="1.0" encoding="UTF-8"?>
<svg version="1.1" xmlns="http://www.w3.org/2000/svg" width="300" height="92">
<path d="M0 0 C0.86882813 0.09023437 1.73765625 0.18046875 2.6328125 0.2734375 C4.875 0.625 4.875 0.625 6.875 1.625 C6.875 2.615 6.875 3.605 6.875 4.625 C7.535 4.625 8.195 4.625 8.875 4.625 C9.37 10.565 9.37 10.565 9.875 16.625 C8.225 16.295 6.575 15.965 4.875 15.625 C4.875 16.615 4.875 17.605 4.875 18.625 C7.27219432 19.30458603 7.27219432 19.30458603 9.875 19.625 C10.535 18.965 11.195 18.305 11.875 17.625 C11.6275 16.635 11.6275 16.635 11.375 15.625 C11.1275 14.635 11.1275 14.635 10.875 13.625 C14.875 9.625 14.875 9.625 17.25 9.25 C19.875 9.625 19.875 9.625 22.25 11.125 C24.69120707 14.88070318 23.73834568 17.30827159 22.875 21.625 C22.215 21.625 21.555 21.625 20.875 21.625 C20.545 22.945 20.215 24.265 19.875 25.625 C20.473125 25.439375 21.07125 25.25375 21.6875 25.0625 C23.875 24.625 23.875 24.625 26.875 25.625 C26.875 26.615 26.875 27.605 26.875 28.625 C27.535 28.625 28.195 28.625 28.875 28.625 C28.875 30.625 28.875 32.625 28.875 34.625 C28.2975 34.41875 27.72 34.2125 27.125 34 C24.33395094 33.53482516 23.23877863 34.15782706 20.875 35.625 C20.545 35.955 20.215 36.285 19.875 36.625 C20.13920795 39.12586487 20.52508248 41.59769658 20.9140625 44.08203125 C20.8643002 47.32155714 20.17202693 48.37195869 17.875 50.625 C13.78558217 52.68902031 10.32799476 52.88235819 5.78125 52.890625 C4.77753357 52.89349518 4.77753357 52.89349518 3.75354004 52.89642334 C2.34496686 52.89777861 0.9363809 52.89412833 -0.47216797 52.88574219 C-2.61845162 52.87503268 -4.76389839 52.88565923 -6.91015625 52.8984375 C-8.283856 52.89711579 -9.65755523 52.89455315 -11.03125 52.890625 C-12.27197266 52.88836914 -13.51269531 52.88611328 -14.79101562 52.88378906 C-18.97199242 52.55925513 -21.89059215 51.79360785 -24.95703125 48.890625 C-26.53823794 45.82340131 -26.21886844 43.77371788 -25.8125 40.375 C-25.63267578 38.75851563 -25.63267578 38.75851563 -25.44921875 37.109375 C-25.34222656 36.28953125 -25.23523437 35.4696875 -25.125 34.625 C-26.445 34.625 -27.765 34.625 -29.125 34.625 C-30.79166667 34.625 -32.45833333 34.625 -34.125 34.625 C-34.125 32.625 -34.125 30.625 -34.125 28.625 C-33.465 28.625 -32.805 28.625 -32.125 28.625 C-32.125 27.635 -32.125 26.645 -32.125 25.625 C-27.375 24.5 -27.375 24.5 -25.125 25.625 C-25.455 24.305 -25.785 22.985 -26.125 21.625 C-26.785 21.625 -27.445 21.625 -28.125 21.625 C-29.08023525 17.56525019 -29.52143275 15.4178655 -27.625 11.625 C-25.125 9.625 -25.125 9.625 -21.375 9.8125 C-20.3025 10.080625 -19.23 10.34875 -18.125 10.625 C-18.125 11.285 -18.125 11.945 -18.125 12.625 C-17.465 12.955 -16.805 13.285 -16.125 13.625 C-16.455 14.945 -16.785 16.265 -17.125 17.625 C-15.47960678 18.95075833 -15.47960678 18.95075833 -13.125 19.625 C-9.35718072 18.34394145 -7.58573079 17.52551926 -5.75 13.9375 C-5.440625 12.7928125 -5.440625 12.7928125 -5.125 11.625 C-5.8675 12.264375 -6.61 12.90375 -7.375 13.5625 C-9.91295462 15.46596596 -11.14285181 16.01964941 -14.125 16.625 C-14.06470033 14.70747047 -13.97583293 12.79082574 -13.875 10.875 C-13.80539063 9.27398438 -13.80539063 9.27398438 -13.734375 7.640625 C-13.00436027 4.027988 -12.03407962 2.83259943 -9.125 0.625 C-6.00919324 -0.62384563 -3.30118976 -0.36460902 0 0 Z M-5.125 2.625 C-5.455 3.285 -5.785 3.945 -6.125 4.625 C-5.135 4.295 -4.145 3.965 -3.125 3.625 C-3.785 3.295 -4.445 2.965 -5.125 2.625 Z M1.875 11.625 C2.875 13.625 2.875 13.625 2.875 13.625 Z M-25.125 25.625 C-24.125 28.625 -24.125 28.625 -24.125 28.625 Z M18.875 25.625 C19.875 28.625 19.875 28.625 19.875 28.625 Z M-15.125 26.625 C-15.455 27.285 -15.785 27.945 -16.125 28.625 C-15.135 28.955 -14.145 29.285 -13.125 29.625 C-13.125 28.635 -13.125 27.645 -13.125 26.625 C-13.785 26.625 -14.445 26.625 -15.125 26.625 Z M7.875 26.625 C8.205 27.615 8.535 28.605 8.875 29.625 C9.535 28.965 10.195 28.305 10.875 27.625 C9.885 27.295 8.895 26.965 7.875 26.625 Z M19.875 28.625 C20.875 30.625 20.875 30.625 20.875 30.625 Z M-13.125 31.625 C-13.455 32.945 -13.785 34.265 -14.125 35.625 C-13.135 35.295 -12.145 34.965 -11.125 34.625 C-11.785 33.635 -12.445 32.645 -13.125 31.625 Z M6.875 31.625 C6.545 32.945 6.215 34.265 5.875 35.625 C6.865 35.295 7.855 34.965 8.875 34.625 C8.215 33.635 7.555 32.645 6.875 31.625 Z M-18.125 33.625 C-19.48327971 35.27139965 -20.81754251 36.93795807 -22.125 38.625 C-21.795 39.285 -21.465 39.945 -21.125 40.625 C-19.145 40.295 -17.165 39.965 -15.125 39.625 C-15.785 39.295 -16.445 38.965 -17.125 38.625 C-17.125 36.975 -17.125 35.325 -17.125 33.625 C-17.455 33.625 -17.785 33.625 -18.125 33.625 Z M11.875 33.625 C11.875 35.275 11.875 36.925 11.875 38.625 C10.885 39.12 10.885 39.12 9.875 39.625 C12.185 39.955 14.495 40.285 16.875 40.625 C15.47740095 37.07981116 15.47740095 37.07981116 13.875 33.625 C13.215 33.625 12.555 33.625 11.875 33.625 Z " fill="#F9F9F3" transform="translate(40.125,6.375)"/>
<path d="M0 0 C8 0 8 0 9.77734375 1.44140625 C10.16019531 2.14136719 10.54304688 2.84132813 10.9375 3.5625 C11.40414062 4.36945312 11.87078125 5.17640625 12.3515625 6.0078125 C12.89554688 6.99523437 13.43953125 7.98265625 14 9 C14.77302859 10.29243888 15.55209241 11.58127991 16.3359375 12.8671875 C22.45843355 22.9168671 22.45843355 22.9168671 24 26 C24.33 17.42 24.66 8.84 25 0 C27.31 0 29.62 0 32 0 C32 13.86 32 27.72 32 42 C24 42 24 42 21.83837891 39.9362793 C21.30647949 38.99179932 20.77458008 38.04731934 20.2265625 37.07421875 C19.62972656 36.05005859 19.03289062 35.02589844 18.41796875 33.97070312 C17.82628906 32.88724609 17.23460938 31.80378906 16.625 30.6875 C16.01011719 29.61564453 15.39523438 28.54378906 14.76171875 27.43945312 C13.62249123 25.45141384 12.49565796 23.45618531 11.38525391 21.4519043 C10.33302384 19.58945336 9.1865803 17.77987045 8 16 C7.67 24.58 7.34 33.16 7 42 C4.69 42 2.38 42 0 42 C0 28.14 0 14.28 0 0 Z " fill="#048863" transform="translate(95,6)"/>
<path d="M0 0 C3.49702617 1.55423385 6.30180572 3.26630317 9 6 C9.37398847 8.81239326 9.48293015 10.97592155 9.3125 13.75 C9.28994141 14.44738281 9.26738281 15.14476562 9.24414062 15.86328125 C9.18547048 17.57644935 9.09579256 19.28850623 9 21 C9.99 21 10.98 21 12 21 C11.91878906 19.98679687 11.83757813 18.97359375 11.75390625 17.9296875 C11.15864691 7.25886665 11.15864691 7.25886665 13.55859375 3.66796875 C15.31120891 2.21862301 16.97857644 1.03649525 19 0 C19.66 0.33 20.32 0.66 21 1 C20.855625 1.680625 20.71125 2.36125 20.5625 3.0625 C19.44031077 8.49361385 19.44031077 8.49361385 19 14 C20.32 14 21.64 14 23 14 C23 14.66 23 15.32 23 16 C24.98 16 26.96 16 29 16 C29.66 17.32 30.32 18.64 31 20 C31.99 20 32.98 20 34 20 C33.38722388 22.96175123 32.74627478 24.38058783 31 27 C26.97841033 29.15840914 23.41885186 29.25742027 18.90625 29.265625 C17.90253357 29.26849518 17.90253357 29.26849518 16.87854004 29.27142334 C15.46996686 29.27277861 14.0613809 29.26912833 12.65283203 29.26074219 C10.50654838 29.25003268 8.36110161 29.26065923 6.21484375 29.2734375 C4.841144 29.27211579 3.46744477 29.26955315 2.09375 29.265625 C0.85302734 29.26336914 -0.38769531 29.26111328 -1.66601562 29.25878906 C-5.87708036 28.93191966 -8.79268741 28.18414454 -11.83203125 25.203125 C-13.31141865 22.41257485 -13.13606148 20.84915208 -12.6875 17.75 C-12.50767578 16.41195312 -12.50767578 16.41195312 -12.32421875 15.046875 C-12.21722656 14.37140625 -12.11023437 13.6959375 -12 13 C-11.67 13 -11.34 13 -11 13 C-10.67 14.65 -10.34 16.3 -10 18 C-9.34 17.34 -8.68 16.68 -8 16 C-4.875 15.875 -4.875 15.875 -2 16 C-2 15.34 -2 14.68 -2 14 C-0.35 14.33 1.3 14.66 3 15 C2.67128906 14.43539062 2.34257812 13.87078125 2.00390625 13.2890625 C0.88732565 10.74308494 0.82228484 9.13094654 0.9375 6.375 C1.11438333 3.05753853 1.11438333 3.05753853 0 0 Z " fill="#0F8037" transform="translate(27,30)"/>
<path d="M0 0 C3.3 0 6.6 0 10 0 C11.85714582 5.49734921 13.70840233 10.99663258 15.55419922 16.49780273 C16.18311161 18.36944211 16.81363756 20.2405401 17.44580078 22.11108398 C18.35352269 24.79791235 19.25544777 27.48662629 20.15625 30.17578125 C20.44060913 31.01337479 20.72496826 31.85096832 21.01794434 32.71394348 C21.27821411 33.49452621 21.53848389 34.27510895 21.80664062 35.0793457 C22.03758423 35.76551468 22.26852783 36.45168365 22.50646973 37.15864563 C23 39 23 39 23 42 C20.36 42 17.72 42 15 42 C14.32942113 40.2097939 13.6636531 38.41778511 13 36.625 C12.62875 35.62726562 12.2575 34.62953125 11.875 33.6015625 C11 31 11 31 11 29 C7.04 29 3.08 29 -1 29 C-1.474375 30.77375 -1.94875 32.5475 -2.4375 34.375 C-3.875 39.75 -3.875 39.75 -5 42 C-7.64 42 -10.28 42 -13 42 C-11.30808566 33.0410078 -8.29557311 24.55282238 -5.375 15.9375 C-4.85374655 14.38881321 -4.33290964 12.83998616 -3.8125 11.29101562 C-2.54646623 7.52570844 -1.27480038 3.7623477 0 0 Z M4 11 C3.49487756 12.60256108 2.99608373 14.20711792 2.5 15.8125 C2.2215625 16.70582031 1.943125 17.59914063 1.65625 18.51953125 C0.87211649 21.05573395 0.87211649 21.05573395 1 24 C3.64 24 6.28 24 9 24 C8.55005243 22.20620902 8.08975857 20.41501072 7.625 18.625 C7.36976563 17.62726562 7.11453125 16.62953125 6.8515625 15.6015625 C6.17595681 12.87458985 6.17595681 12.87458985 4 11 Z " fill="#048863" transform="translate(152,6)"/>
<path d="M0 0 C19 0 19 0 24 3 C26.90259491 6.01717103 27.45349824 8.2247183 27.5 12.375 C27.39550595 16.10195433 27.13526072 18.59493505 24.8125 21.5625 C19.29498842 26.34434337 15.06038369 26.21075772 8 26 C8 31.28 8 36.56 8 42 C5.36 42 2.72 42 0 42 C0 28.14 0 14.28 0 0 Z M8 5 C8 9.95 8 14.9 8 20 C14.53453377 20.67574165 14.53453377 20.67574165 17.375 18.3125 C19.23110923 15.67111379 20 14.24074924 20 11 C18.22336478 8.30441552 16.90715555 6.45357777 14 5 C12.02 5 10.04 5 8 5 Z " fill="#048863" transform="translate(270,6)"/>
<path d="M0 0 C1.82917969 -0.01160156 1.82917969 -0.01160156 3.6953125 -0.0234375 C6.875 0.375 6.875 0.375 8.8046875 1.8984375 C9.15789062 2.38570312 9.51109375 2.87296875 9.875 3.375 C9.215 4.695 8.555 6.015 7.875 7.375 C6.98748047 7.21451172 6.98748047 7.21451172 6.08203125 7.05078125 C0.81736509 6.22400009 0.81736509 6.22400009 -4.1875 7.8125 C-4.826875 8.328125 -5.46625 8.84375 -6.125 9.375 C-6.12120656 11.76891473 -6.12120656 11.76891473 -5.125 14.375 C-2.25654174 16.37110245 -2.25654174 16.37110245 1.25 17.9375 C8.81735813 21.57016748 8.81735813 21.57016748 10.875 25.375 C11.80734968 29.99475067 11.25352328 33.60393406 9.1875 37.8125 C6.08766528 41.24745199 3.52883189 42.22545137 -1.0625 42.640625 C-2.073125 42.63546875 -3.08375 42.6303125 -4.125 42.625 C-5.6409375 42.63273437 -5.6409375 42.63273437 -7.1875 42.640625 C-10.1953976 42.36863426 -12.39806793 41.63821118 -15.125 40.375 C-15.125 38.725 -15.125 37.075 -15.125 35.375 C-10.375 34.25 -10.375 34.25 -8.125 35.375 C-2.79532792 35.71592041 -2.79532792 35.71592041 1.875 33.375 C2.12515873 29.79142759 2.12515873 29.79142759 1.875 26.375 C1.215 26.1275 0.555 25.88 -0.125 25.625 C-2.53971064 24.61887057 -4.89453887 23.57177187 -7.25 22.4375 C-8.24386719 21.95990234 -8.24386719 21.95990234 -9.2578125 21.47265625 C-11.27586159 20.28631358 -12.64484476 19.18995226 -14.125 17.375 C-15.16631937 12.83782273 -15.49785519 10.4728514 -14 6.0625 C-10.26911029 0.71489141 -6.32298874 -0.04027381 0 0 Z " fill="#048863" transform="translate(202.125,5.625)"/>
<path d="M0 0 C0.72445312 -0.00386719 1.44890625 -0.00773438 2.1953125 -0.01171875 C5.39282879 -0.00581927 7.94582607 0.10694202 11 1.125 C10.67 3.105 10.34 5.085 10 7.125 C8.97519531 7.09019531 7.95039063 7.05539063 6.89453125 7.01953125 C5.53387064 6.99137965 4.1731922 6.96408096 2.8125 6.9375 C1.80219727 6.89979492 1.80219727 6.89979492 0.77148438 6.86132812 C-3.70956436 6.7957518 -6.44741776 7.36913657 -10 10.125 C-13.55707433 15.15396716 -13.69562622 20.18319273 -13 26.125 C-11.71161545 30.06173056 -10.8618111 31.59017017 -7.34375 33.7734375 C-3.51122553 35.32256538 -0.7400633 35.42896406 3.375 35.3125 C5.24285156 35.27189453 5.24285156 35.27189453 7.1484375 35.23046875 C8.55996094 35.17826172 8.55996094 35.17826172 10 35.125 C10.495 37.6 10.495 37.6 11 40.125 C5.44464131 43.63217089 -1.70085775 42.66152 -8 42.125 C-14.30057847 40.38788075 -17.62784952 36.87231018 -21.078125 31.421875 C-23.38367423 25.67754049 -22.85104182 17.49859093 -21.34765625 11.5390625 C-19.1614813 6.64127999 -15.6743365 3.65196149 -11 1.125 C-7.29553447 -0.10982184 -3.8556992 -0.02058202 0 0 Z " fill="#048863" transform="translate(246,5.875)"/>
<path d="M0 0 C90.42 0 180.84 0 274 0 C274 0.66 274 1.32 274 2 C183.58 2 93.16 2 0 2 C0 1.34 0 0.68 0 0 Z " fill="#D7B44C" transform="translate(16,64)"/>
<path d="M0 0 C0.86882813 0.09023437 1.73765625 0.18046875 2.6328125 0.2734375 C4.875 0.625 4.875 0.625 6.875 1.625 C6.875 2.615 6.875 3.605 6.875 4.625 C7.535 4.625 8.195 4.625 8.875 4.625 C9.205 8.585 9.535 12.545 9.875 16.625 C8.225 16.295 6.575 15.965 4.875 15.625 C4.875 16.615 4.875 17.605 4.875 18.625 C5.865 19.285 6.855 19.945 7.875 20.625 C6.44205502 21.46614171 5.00345595 22.29765687 3.5625 23.125 C2.36173828 23.82109375 2.36173828 23.82109375 1.13671875 24.53125 C-1.125 25.625 -1.125 25.625 -4.125 25.625 C-6.38671875 24.53125 -6.38671875 24.53125 -8.8125 23.125 C-9.62074219 22.6609375 -10.42898437 22.196875 -11.26171875 21.71875 C-11.87660156 21.3578125 -12.49148437 20.996875 -13.125 20.625 C-11.42304976 19.49036651 -9.71733204 18.36121485 -8 17.25 C-5.87386988 15.40735389 -5.50265842 14.36302355 -5.125 11.625 C-6.23875 12.5840625 -6.23875 12.5840625 -7.375 13.5625 C-9.91295462 15.46596596 -11.14285181 16.01964941 -14.125 16.625 C-14.06470033 14.70747047 -13.97583293 12.79082574 -13.875 10.875 C-13.82859375 9.80765625 -13.7821875 8.7403125 -13.734375 7.640625 C-13.00436027 4.027988 -12.03407962 2.83259943 -9.125 0.625 C-6.00919324 -0.62384563 -3.30118976 -0.36460902 0 0 Z M-5.125 2.625 C-5.455 3.285 -5.785 3.945 -6.125 4.625 C-5.135 4.295 -4.145 3.965 -3.125 3.625 C-3.785 3.295 -4.445 2.965 -5.125 2.625 Z M1.875 11.625 C2.875 13.625 2.875 13.625 2.875 13.625 Z " fill="#BE3126" transform="translate(40.125,6.375)"/>
<path d="M0 0 C2.625 0.375 2.625 0.375 5 1.875 C7.44120707 5.63070318 6.48834568 8.05827159 5.625 12.375 C4.965 12.375 4.305 12.375 3.625 12.375 C3.295 13.695 2.965 15.015 2.625 16.375 C3.223125 16.189375 3.82125 16.00375 4.4375 15.8125 C6.625 15.375 6.625 15.375 9.625 16.375 C9.625 17.365 9.625 18.355 9.625 19.375 C10.285 19.375 10.945 19.375 11.625 19.375 C11.625 21.375 11.625 23.375 11.625 25.375 C10.75875 25.065625 10.75875 25.065625 9.875 24.75 C7.08395094 24.28482516 5.98877863 24.90782706 3.625 26.375 C3.295 26.705 2.965 27.035 2.625 27.375 C2.66625 28.32375 2.7075 29.2725 2.75 30.25 C2.625 33.375 2.625 33.375 1.125 35.25 C0.63 35.62125 0.135 35.9925 -0.375 36.375 C-0.49875 35.323125 -0.6225 34.27125 -0.75 33.1875 C-1.28640782 29.91541229 -2.01380035 27.36963924 -3.375 24.375 C-4.035 24.375 -4.695 24.375 -5.375 24.375 C-5.375 26.025 -5.375 27.675 -5.375 29.375 C-6.32375 29.354375 -7.2725 29.33375 -8.25 29.3125 C-11.28166283 29.14948174 -11.28166283 29.14948174 -13.375 30.375 C-11.625 26.5 -11.625 26.5 -9.375 25.375 C-9.725625 24.67375 -10.07625 23.9725 -10.4375 23.25 C-11.54283441 19.8603078 -11.06468089 17.82340444 -10.375 14.375 C-10.705 13.715 -11.035 13.055 -11.375 12.375 C-9.395 11.055 -7.415 9.735 -5.375 8.375 C-5.58125 7.75625 -5.7875 7.1375 -6 6.5 C-6.12375 5.79875 -6.2475 5.0975 -6.375 4.375 C-2.375 0.375 -2.375 0.375 0 0 Z M1.625 16.375 C2.625 19.375 2.625 19.375 2.625 19.375 Z M-9.375 17.375 C-9.045 18.365 -8.715 19.355 -8.375 20.375 C-7.715 19.715 -7.055 19.055 -6.375 18.375 C-7.365 18.045 -8.355 17.715 -9.375 17.375 Z M2.625 19.375 C3.625 21.375 3.625 21.375 3.625 21.375 Z " fill="#E5E3CF" transform="translate(57.375,15.625)"/>
<path d="M0 0 C0.33 0 0.66 0 1 0 C1.33 2.64 1.66 5.28 2 8 C2.99 8 3.98 8 5 8 C5 7.34 5 6.68 5 6 C5.66 6 6.32 6 7 6 C7 6.66 7 7.32 7 8 C7.66 8 8.32 8 9 8 C9 8.99 9 9.98 9 11 C9.57435791 10.83773926 10.14871582 10.67547852 10.74047852 10.50830078 C12.96132702 10.00869985 14.88135898 9.87083986 17.15234375 9.8671875 C18.31733398 9.86525391 18.31733398 9.86525391 19.50585938 9.86328125 C20.70952148 9.86908203 20.70952148 9.86908203 21.9375 9.875 C22.73607422 9.87113281 23.53464844 9.86726563 24.35742188 9.86328125 C28.36995566 9.86993002 32.08442668 10.00330861 36 11 C36 10.01 36 9.02 36 8 C37.670625 8.061875 37.670625 8.061875 39.375 8.125 C43.04366025 8.41121859 43.04366025 8.41121859 45 6 C45.6875 7.75 45.6875 7.75 46 10 C44.04574526 13.69137006 41.8931643 14.76102131 38 16 C34.66601562 16.25878906 34.66601562 16.25878906 30.90625 16.265625 C29.90253357 16.26849518 29.90253357 16.26849518 28.87854004 16.27142334 C27.46996686 16.27277861 26.0613809 16.26912833 24.65283203 16.26074219 C22.50654838 16.25003268 20.36110161 16.26065923 18.21484375 16.2734375 C16.841144 16.27211579 15.46744477 16.26955315 14.09375 16.265625 C12.85302734 16.26336914 11.61230469 16.26111328 10.33398438 16.25878906 C6.12291964 15.93191966 3.20731259 15.18414454 0.16796875 12.203125 C-1.31141865 9.41257485 -1.13606148 7.84915208 -0.6875 4.75 C-0.56761719 3.85796875 -0.44773437 2.9659375 -0.32421875 2.046875 C-0.21722656 1.37140625 -0.11023437 0.6959375 0 0 Z " fill="#B47720" transform="translate(15,43)"/>
<path d="M0 0 C2.0625 0.4375 2.0625 0.4375 4 1 C4.66 3.31 5.32 5.62 6 8 C6.66 8 7.32 8 8 8 C8.66 5.69 9.32 3.38 10 1 C11.9375 0.4375 11.9375 0.4375 14 0 C15 1 15 1 15.09765625 4.16015625 C15.08605469 5.44792969 15.07445313 6.73570313 15.0625 8.0625 C15.05347656 9.35285156 15.04445313 10.64320312 15.03515625 11.97265625 C15.02355469 12.97167969 15.01195313 13.97070312 15 15 C14.01 15 13.02 15 12 15 C11.67 13.35 11.34 11.7 11 10 C10.34 11.65 9.68 13.3 9 15 C7.68 15 6.36 15 5 15 C4.34 13.68 3.68 12.36 3 11 C2.67 12.32 2.34 13.64 2 15 C1.01 15 0.02 15 -1 15 C-1.02685412 12.68756208 -1.04632841 10.3750373 -1.0625 8.0625 C-1.07410156 6.77472656 -1.08570312 5.48695312 -1.09765625 4.16015625 C-1 1 -1 1 0 0 Z " fill="#048863" transform="translate(102,68)"/>
<path d="M0 0 C1.65 0 3.3 0 5 0 C5 0.66 5 1.32 5 2 C16.88 2 28.76 2 41 2 C41 3.33333333 41 4.66666667 41 6 C40.34926514 5.98952637 39.69853027 5.97905273 39.02807617 5.96826172 C36.0812567 5.92670165 33.13449889 5.90067392 30.1875 5.875 C28.65125977 5.84986328 28.65125977 5.84986328 27.08398438 5.82421875 C26.10107422 5.81777344 25.11816406 5.81132813 24.10546875 5.8046875 C23.19949951 5.79421387 22.29353027 5.78374023 21.36010742 5.77294922 C18.73063552 5.83834609 18.73063552 5.83834609 16 8 C14.68 8 13.36 8 12 8 C12 7.34 12 6.68 12 6 C9.69 6 7.38 6 5 6 C5 5.34 5 4.68 5 4 C4.01 4 3.02 4 2 4 C2 4.66 2 5.32 2 6 C1.34 6 0.68 6 0 6 C0 4.02 0 2.04 0 0 Z M2 1 C3 3 3 3 3 3 Z " fill="#048863" transform="translate(255,53)"/>
<path d="M0 0 C1.125 5.75 1.125 5.75 0 8 C0.99 7.67 1.98 7.34 3 7 C3 7.66 3 8.32 3 9 C4.32 9.33 5.64 9.66 7 10 C7.33 9.34 7.66 8.68 8 8 C8.103125 8.61875 8.20625 9.2375 8.3125 9.875 C8.87525373 12.36526484 8.87525373 12.36526484 12 14 C10.56705502 14.84114171 9.12845595 15.67265687 7.6875 16.5 C6.88699219 16.9640625 6.08648437 17.428125 5.26171875 17.90625 C3 19 3 19 0 19 C-2.26171875 17.90625 -2.26171875 17.90625 -4.6875 16.5 C-5.49574219 16.0359375 -6.30398437 15.571875 -7.13671875 15.09375 C-8.05904297 14.55234375 -8.05904297 14.55234375 -9 14 C-7.29804976 12.86536651 -5.59233204 11.73621485 -3.875 10.625 C-1.71158096 8.75003683 -1.26425944 7.81876735 -1 5 C-1.33 4.01 -1.66 3.02 -2 2 C-2.99 1.67 -3.98 1.34 -5 1 C-2 0 -2 0 0 0 Z " fill="#801E14" transform="translate(36,13)"/>
<path d="M0 0 C0.4125 0.5775 0.825 1.155 1.25 1.75 C3.03145903 4.04044733 4.8465815 6.05497684 7 8 C7.66 8 8.32 8 9 8 C8.125 12.875 8.125 12.875 7 14 C7.28604898 15.67542976 7.61781233 17.34385343 8 19 C7.34 19 6.68 19 6 19 C6.350625 19.680625 6.70125 20.36125 7.0625 21.0625 C8.22620603 24.7087789 7.72845102 27.28489978 7 31 C6.34 30.67 5.68 30.34 5 30 C4.5859375 27.71484375 4.5859375 27.71484375 4.375 24.9375 C4.30023438 24.01839844 4.22546875 23.09929688 4.1484375 22.15234375 C4.09945313 21.44207031 4.05046875 20.73179688 4 20 C2.68 20 1.36 20 0 20 C-1.66666667 20 -3.33333333 20 -5 20 C-5 18 -5 16 -5 14 C-4.34 14 -3.68 14 -3 14 C-3 13.01 -3 12.02 -3 11 C1.75 9.875 1.75 9.875 4 11 C3.67 9.68 3.34 8.36 3 7 C2.34 7 1.68 7 1 7 C0.67 4.69 0.34 2.38 0 0 Z M4 11 C5 14 5 14 5 14 Z " fill="#A8A79A" transform="translate(11,21)"/>
<path d="M0 0 C0.66 0 1.32 0 2 0 C2 0.99 2 1.98 2 3 C2.66 3 3.32 3 4 3 C4 2.01 4 1.02 4 0 C4.66 0 5.32 0 6 0 C6 0.66 6 1.32 6 2 C10.59777307 2.07298052 15.0044812 2.05688235 19.5625 1.4375 C23.90409846 0.88715653 27.68923049 1.29460135 32 2 C32 3.32 32 4.64 32 6 C25.4 6 18.8 6 12 6 C12 6.66 12 7.32 12 8 C11.34 8 10.68 8 10 8 C10 7.34 10 6.68 10 6 C8.02 6 6.04 6 4 6 C4 5.34 4 4.68 4 4 C3.34 4 2.68 4 2 4 C2 4.66 2 5.32 2 6 C1.34 6 0.68 6 0 6 C0 4.02 0 2.04 0 0 Z " fill="#048863" transform="translate(163,53)"/>
<path d="M0 0 C1.98 0 3.96 0 6 0 C6 0.66 6 1.32 6 2 C6.928125 1.814375 7.85625 1.62875 8.8125 1.4375 C12 1 12 1 15 2 C17.06145107 2.068991 19.12501401 2.08467727 21.1875 2.0625 C22.27417969 2.05347656 23.36085938 2.04445312 24.48046875 2.03515625 C25.31191406 2.02355469 26.14335938 2.01195312 27 2 C27.33 1.34 27.66 0.68 28 0 C28.66 0 29.32 0 30 0 C30 1.98 30 3.96 30 6 C20.1 6 10.2 6 0 6 C0 4.02 0 2.04 0 0 Z " fill="#048863" transform="translate(94,53)"/>
<path d="M0 0 C0.33 0 0.66 0 1 0 C1.33 2.64 1.66 5.28 2 8 C2.99 8 3.98 8 5 8 C5 7.34 5 6.68 5 6 C5.66 6 6.32 6 7 6 C7 6.66 7 7.32 7 8 C7.66 8 8.32 8 9 8 C9 8.99 9 9.98 9 11 C9.57290771 10.83846436 10.14581543 10.67692871 10.73608398 10.51049805 C14.48624939 9.66486062 18.2328759 9.8155418 22.0625 9.8125 C22.87783203 9.80025391 23.69316406 9.78800781 24.53320312 9.77539062 C25.70979492 9.77249023 25.70979492 9.77249023 26.91015625 9.76953125 C27.62308838 9.76542236 28.33602051 9.76131348 29.07055664 9.75708008 C31 10 31 10 34 12 C31 14 31 14 27.8125 13.625 C26.884375 13.41875 25.95625 13.2125 25 13 C25 12.34 25 11.68 25 11 C24.38511719 11.15597656 23.77023438 11.31195313 23.13671875 11.47265625 C22.32847656 11.66730469 21.52023438 11.86195312 20.6875 12.0625 C19.88699219 12.25972656 19.08648437 12.45695312 18.26171875 12.66015625 C16 13 16 13 13 12 C12.34 13.32 11.68 14.64 11 16 C9.33157466 15.67558396 7.66519519 15.34060811 6 15 C4.948125 14.8453125 4.948125 14.8453125 3.875 14.6875 C1.21990335 13.71396456 0.43785639 12.41016042 -1 10 C-1.07421875 7.421875 -1.07421875 7.421875 -0.6875 4.75 C-0.56761719 3.85796875 -0.44773437 2.9659375 -0.32421875 2.046875 C-0.21722656 1.37140625 -0.11023437 0.6959375 0 0 Z " fill="#BC8223" transform="translate(15,43)"/>
<path d="M0 0 C0 0.99 0 1.98 0 3 C0.66 3 1.32 3 2 3 C2 5 2 7 2 9 C1.4225 8.79375 0.845 8.5875 0.25 8.375 C-2.54104906 7.90982516 -3.63622137 8.53282706 -6 10 C-6.33 10.33 -6.66 10.66 -7 11 C-6.938125 12.423125 -6.938125 12.423125 -6.875 13.875 C-7 17 -7 17 -8.5 18.875 C-9.2425 19.431875 -9.2425 19.431875 -10 20 C-10.12375 18.9275 -10.2475 17.855 -10.375 16.75 C-10.89643936 13.62136385 -11.40088254 11.66519576 -13 9 C-12.34 8.67 -11.68 8.34 -11 8 C-10.31527335 6.11235097 -10.31527335 6.11235097 -9.875 3.9375 C-9.70742188 3.20402344 -9.53984375 2.47054687 -9.3671875 1.71484375 C-9.24601562 1.14894531 -9.12484375 0.58304688 -9 0 C-5.61682513 -0.97591583 -3.4342662 -0.85856655 0 0 Z M-7 3 C-6 5 -6 5 -6 5 Z " fill="#B6B4A8" transform="translate(67,32)"/>
<path d="M0 0 C0.99 0.33 1.98 0.66 3 1 C2.34 1 1.68 1 1 1 C0.9071875 1.86625 0.9071875 1.86625 0.8125 2.75 C0 5 0 5 -2.5 6.65625 C-5.34910408 9.32728507 -5.62721428 10.84495328 -5.79492188 14.68359375 C-5.80072266 15.36550781 -5.80652344 16.04742187 -5.8125 16.75 C-5.83763672 17.44738281 -5.86277344 18.14476563 -5.88867188 18.86328125 C-5.94728962 20.57491949 -5.97657053 22.2875186 -6 24 C-6.99 24 -7.98 24 -9 24 C-9.00257812 22.97519531 -9.00515625 21.95039062 -9.0078125 20.89453125 C-8.87996726 13.57705866 -8.87996726 13.57705866 -11.40234375 6.99609375 C-13.22105609 5.5849674 -13.22105609 5.5849674 -16 4 C-16 3.01 -16 2.02 -16 1 C-12.9168649 2.19899698 -9.93720508 3.47700477 -7 5 C-6.52949219 4.62746094 -6.05898438 4.25492188 -5.57421875 3.87109375 C-4.95160156 3.39800781 -4.32898437 2.92492187 -3.6875 2.4375 C-3.07261719 1.96183594 -2.45773438 1.48617188 -1.82421875 0.99609375 C-1.22222656 0.66738281 -0.62023437 0.33867187 0 0 Z " fill="#EAE9E8" transform="translate(45,27)"/>
<path d="M0 0 C0.66 0 1.32 0 2 0 C2 1.98 2 3.96 2 6 C3.65 6 5.3 6 7 6 C7 4.02 7 2.04 7 0 C7.99 0 8.98 0 10 0 C10 4.95 10 9.9 10 15 C9.01 15 8.02 15 7 15 C7 13.02 7 11.04 7 9 C5.35 9 3.7 9 2 9 C2 10.98 2 12.96 2 15 C1.01 15 0.02 15 -1 15 C-1.02685412 12.68756208 -1.04632841 10.3750373 -1.0625 8.0625 C-1.07410156 6.77472656 -1.08570313 5.48695312 -1.09765625 4.16015625 C-1 1 -1 1 0 0 Z " fill="#048863" transform="translate(225,68)"/>
<path d="M0 0 C0.66 0 1.32 0 2 0 C2 5.28 2 10.56 2 16 C-0.64 16 -3.28 16 -6 16 C-8 13 -8 13 -7.6875 9.375 C-7 6 -7 6 -6 5 C-4.33382885 4.95936168 -2.66611905 4.957279 -1 5 C-0.67 3.35 -0.34 1.7 0 0 Z M-4 8 C-4 9.65 -4 11.3 -4 13 C-3.01 12.67 -2.02 12.34 -1 12 C-1.33 10.68 -1.66 9.36 -2 8 C-2.66 8 -3.32 8 -4 8 Z " fill="#048863" transform="translate(47,67)"/>
<path d="M0 0 C1.65 0 3.3 0 5 0 C4.01 0.66 3.02 1.32 2 2 C2 2.66 2 3.32 2 4 C2.66 4.33 3.32 4.66 4 5 C4 4.01 4 3.02 4 2 C10.51244208 1.30491177 16.5510809 0.68090291 23 2 C23 1.34 23 0.68 23 0 C23.66 0 24.32 0 25 0 C25 1.98 25 3.96 25 6 C16.75 6 8.5 6 0 6 C-1 2 -1 2 0 0 Z " fill="#048863" transform="translate(228,53)"/>
<path d="M0 0 C2.31 0.66 4.62 1.32 7 2 C6.649375 2.556875 6.29875 3.11375 5.9375 3.6875 C4.76062214 5.9769253 4.76062214 5.9769253 5.5 8.4375 C6.11562273 11.5925665 5.38104705 13.15666785 4 16 C5.32 16.99 6.64 17.98 8 19 C7.67 19.66 7.34 20.32 7 21 C6.21625 20.835 5.4325 20.67 4.625 20.5 C2.11791961 19.9376293 2.11791961 19.9376293 0 20 C-2.26273207 16.44181064 -2.07331744 13.87452049 -1.625 9.75 C-1.51414062 8.67234375 -1.40328125 7.5946875 -1.2890625 6.484375 C-1.19367187 5.66453125 -1.09828125 4.8446875 -1 4 C-0.34 4 0.32 4 1 4 C0.67 2.68 0.34 1.36 0 0 Z M2 8 C1.67 8.66 1.34 9.32 1 10 C1.99 10.33 2.98 10.66 4 11 C4 10.01 4 9.02 4 8 C3.34 8 2.68 8 2 8 Z " fill="#AEAB9B" transform="translate(23,25)"/>
<path d="M0 0 C0 2.31259384 -0.01330701 4.62542943 -0.0625 6.9375 C-0.00472355 9.76854611 0.35328446 12.25145896 1 15 C0.34 15 -0.32 15 -1 15 C-1 16.65 -1 18.3 -1 20 C-1.94875 19.979375 -2.8975 19.95875 -3.875 19.9375 C-6.90666283 19.77448174 -6.90666283 19.77448174 -9 21 C-7.25 17.125 -7.25 17.125 -5 16 C-5.350625 15.29875 -5.70125 14.5975 -6.0625 13.875 C-7.16783441 10.4853078 -6.68968089 8.44840444 -6 5 C-6.33 4.34 -6.66 3.68 -7 3 C-2.25 0 -2.25 0 0 0 Z M-5 8 C-4.67 8.99 -4.34 9.98 -4 11 C-3.34 10.34 -2.68 9.68 -2 9 C-2.99 8.67 -3.98 8.34 -5 8 Z " fill="#BAB6A5" transform="translate(53,25)"/>
<path d="M0 0 C3.48211055 1.54760469 6.27994803 3.31573819 9 6 C9.48828125 9.234375 9.48828125 9.234375 9.3125 12.75 C9.26738281 13.92046875 9.22226562 15.0909375 9.17578125 16.296875 C9.11777344 17.18890625 9.05976562 18.0809375 9 19 C8.34 19.33 7.68 19.66 7 20 C2.74734537 14.64621158 0.26049786 10.80975904 0.88671875 3.84765625 C1.16078112 1.90397001 1.16078112 1.90397001 0 0 Z " fill="#242018" transform="translate(27,30)"/>
<path d="M0 0 C0.66 0 1.32 0 2 0 C2 1.65 2 3.3 2 5 C2.78375 4.938125 3.5675 4.87625 4.375 4.8125 C5.674375 4.9053125 5.674375 4.9053125 7 5 C9.67927341 9.01891012 9.15601248 11.24161923 9 16 C7.68 16 6.36 16 5 16 C5 13.36 5 10.72 5 8 C4.01 8.495 4.01 8.495 3 9 C2.59270772 11.32156597 2.25561323 13.6568787 2 16 C1.01 16 0.02 16 -1 16 C-1.02685095 13.52076199 -1.04676547 11.0418116 -1.0625 8.5625 C-1.07506836 7.50192383 -1.07506836 7.50192383 -1.08789062 6.41992188 C-1.09653588 4.61306441 -1.05220011 2.80612397 -1 1 C-0.67 0.67 -0.34 0.34 0 0 Z " fill="#048863" transform="translate(281,67)"/>
<path d="M0 0 C0.66 0.33 1.32 0.66 2 1 C1.855625 1.680625 1.71125 2.36125 1.5625 3.0625 C0.92812317 6.06701373 0.92812317 6.06701373 0.75 9.4375 C-0.20370451 13.96759641 -1.84838021 15.68675868 -5 19 C-7.48234835 15.27647748 -7.58013605 12.908275 -7.53515625 8.51953125 C-6.72319827 4.69680938 -4.61187796 3.17361076 -1.53125 0.9609375 C-1.0259375 0.64382812 -0.520625 0.32671875 0 0 Z " fill="#221E17" transform="translate(46,30)"/>
<path d="M0 0 C2.625 0.375 2.625 0.375 5 1.875 C7.44120707 5.63070318 6.48834568 8.05827159 5.625 12.375 C4.965 12.375 4.305 12.375 3.625 12.375 C2.965 13.695 2.305 15.015 1.625 16.375 C0.965 16.375 0.305 16.375 -0.375 16.375 C-0.045 12.085 0.285 7.795 0.625 3.375 C-0.035 3.045 -0.695 2.715 -1.375 2.375 C-1.313125 3.15875 -1.25125 3.9425 -1.1875 4.75 C-1.249375 5.61625 -1.31125 6.4825 -1.375 7.375 C-2.365 8.035 -3.355 8.695 -4.375 9.375 C-5.035 8.715 -5.695 8.055 -6.375 7.375 C-6.375 3.36799893 -4.05707238 0.64059038 0 0 Z " fill="#CBC9B9" transform="translate(57.375,15.625)"/>
<path d="M0 0 C3.375 0.25 3.375 0.25 7 1 C8.4375 3.0625 8.4375 3.0625 9 5 C7.68 5 6.36 5 5 5 C5 4.34 5 3.68 5 3 C4.01 3 3.02 3 2 3 C2 3.66 2 4.32 2 5 C3.32 5.33 4.64 5.66 6 6 C6 6.66 6 7.32 6 8 C6.99 8.33 7.98 8.66 9 9 C5.7 9.33 2.4 9.66 -1 10 C-1 9.01 -1 8.02 -1 7 C-1.66 7 -2.32 7 -3 7 C-3 6.34 -3 5.68 -3 5 C-3.66 5 -4.32 5 -5 5 C-4.67 5.99 -4.34 6.98 -4 8 C-4.99 8 -5.98 8 -7 8 C-7.625 6.125 -7.625 6.125 -8 4 C-6 2 -6 2 -2.875 1.875 C-1.92625 1.91625 -0.9775 1.9575 0 2 C0 1.34 0 0.68 0 0 Z " fill="#0F7834" transform="translate(25,44)"/>
<path d="M0 0 C0.99 0.103125 1.98 0.20625 3 0.3125 C5.78637633 4.4920645 4.79562512 6.45918677 4 11.3125 C1.36 11.3125 -1.28 11.3125 -4 11.3125 C-5.50662097 8.29925805 -5.17770373 5.62963623 -5 2.3125 C-3 0.3125 -3 0.3125 0 0 Z " fill="#048863" transform="translate(32,71.6875)"/>
<path d="M0 0 C1.64933228 0.06399526 3.29615131 0.20073916 4.9375 0.375 C6.28134766 0.51035156 6.28134766 0.51035156 7.65234375 0.6484375 C10 1 10 1 12 2 C12 2.99 12 3.98 12 5 C12.66 5 13.32 5 14 5 C14.33 8.96 14.66 12.92 15 17 C12.97954558 16.39816251 10.97888961 15.72693904 9 15 C8.67 14.34 8.34 13.68 8 13 C9.65 13.33 11.3 13.66 13 14 C12.67 12.68 12.34 11.36 12 10 C10.35 9.67 8.7 9.34 7 9 C8.32 8.67 9.64 8.34 11 8 C11 7.34 11 6.68 11 6 C10.01 6.33 9.02 6.66 8 7 C8 6 8 5 8 4 C5.48916886 5.25541557 5.12874554 6.50063488 4 9 C4 7.68 4 6.36 4 5 C2.68 5.33 1.36 5.66 0 6 C0 5.34 0 4.68 0 4 C-0.33 3.01 -0.66 2.02 -1 1 C-0.67 0.67 -0.34 0.34 0 0 Z " fill="#841D15" transform="translate(35,6)"/>
<path d="M0 0 C0.94875 0.04125 1.8975 0.0825 2.875 0.125 C4.50450412 4.24668689 5.13764601 6.83200357 3.875 11.125 C-2.27734375 11.22265625 -2.27734375 11.22265625 -4.125 11.125 C-6.01988952 9.23011048 -5.30519112 6.55360854 -5.35546875 4.03515625 C-4.9210756 0.43484692 -3.39285056 0.13571402 0 0 Z " fill="#048863" transform="translate(244.125,71.875)"/>
<path d="M0 0 C2.875 0.375 2.875 0.375 3.875 1.375 C3.94705511 3.06108966 3.95886068 4.75000659 3.9375 6.4375 C3.92847656 7.35660156 3.91945313 8.27570313 3.91015625 9.22265625 C3.89855469 9.93292969 3.88695312 10.64320312 3.875 11.375 C1.235 11.375 -1.405 11.375 -4.125 11.375 C-5.66688454 7.88547182 -6.40292963 6.17404768 -5.125 2.5 C-3.125 0.375 -3.125 0.375 0 0 Z " fill="#048863" transform="translate(58.125,71.625)"/>
<path d="M0 0 C2.33294775 -0.04241723 4.66702567 -0.04092937 7 0 C8 1 8 1 8.09765625 3.28515625 C8.08605469 4.20167969 8.07445313 5.11820312 8.0625 6.0625 C8.05347656 6.98160156 8.04445313 7.90070313 8.03515625 8.84765625 C8.02355469 9.55792969 8.01195313 10.26820312 8 11 C5.36 11 2.72 11 0 11 C-0.88376862 6.91257012 -1.34972126 4.04916379 0 0 Z " fill="#048863" transform="translate(75,72)"/>
<path d="M0 0 C2.33294775 -0.04241723 4.66702567 -0.04092937 7 0 C8 1 8 1 8.09765625 3.28515625 C8.08605469 4.20167969 8.07445312 5.11820312 8.0625 6.0625 C8.05347656 6.98160156 8.04445313 7.90070313 8.03515625 8.84765625 C8.02355469 9.55792969 8.01195312 10.26820312 8 11 C5.36 11 2.72 11 0 11 C-1.125 6.25 -1.125 6.25 0 4 C0 2.68 0 1.36 0 0 Z " fill="#048863" transform="translate(252,72)"/>
<path d="M0 0 C4.95 0 9.9 0 15 0 C17 4 17 4 17 7 C11.06 6.67 5.12 6.34 -1 6 C-0.67 4.02 -0.34 2.04 0 0 Z M8 1 C8.33 2.32 8.66 3.64 9 5 C9.33 4.01 9.66 3.02 10 2 C9.34 1.67 8.68 1.34 8 1 Z M12 3 C11.67 3.66 11.34 4.32 11 5 C11.66 5 12.32 5 13 5 C12.67 4.34 12.34 3.68 12 3 Z " fill="#048863" transform="translate(127,53)"/>
<path d="M0 0 C0.99 0 1.98 0 3 0 C3.66 1.32 4.32 2.64 5 4 C5.66 2.68 6.32 1.36 7 0 C7.99 0 8.98 0 10 0 C9.43174347 5.54050113 7.37113483 10.03715966 5 15 C4.01 15 3.02 15 2 15 C1.7834375 13.2365625 1.7834375 13.2365625 1.5625 11.4375 C1.08589824 7.61787728 0.55546456 3.80889981 0 0 Z " fill="#048863" transform="translate(176,72)"/>
<path d="M0 0 C3 0.25 3 0.25 5 2.25 C5.25 5.75 5.25 5.75 5 9.25 C3 11.25 3 11.25 -0.625 11.375 C-1.73875 11.33375 -2.8525 11.2925 -4 11.25 C-5.50662097 8.23675805 -5.17770373 5.56713623 -5 2.25 C-3 0.25 -3 0.25 0 0 Z M-1 3.25 C-1.33 4.57 -1.66 5.89 -2 7.25 C-0.68 7.58 0.64 7.91 2 8.25 C1.67 6.6 1.34 4.95 1 3.25 C0.34 3.25 -0.32 3.25 -1 3.25 Z " fill="#048863" transform="translate(200,71.75)"/>
<path d="M0 0 C1.134375 0.020625 2.26875 0.04125 3.4375 0.0625 C3.4375 1.3825 3.4375 2.7025 3.4375 4.0625 C1.7875 4.0625 0.1375 4.0625 -1.5625 4.0625 C-1.5625 4.7225 -1.5625 5.3825 -1.5625 6.0625 C0.0875 6.0625 1.7375 6.0625 3.4375 6.0625 C3.4375 7.0525 3.4375 8.0425 3.4375 9.0625 C1.7875 9.0625 0.1375 9.0625 -1.5625 9.0625 C-1.5625 11.0425 -1.5625 13.0225 -1.5625 15.0625 C-2.5525 15.0625 -3.5425 15.0625 -4.5625 15.0625 C-4.58935412 12.75006208 -4.60882841 10.4375373 -4.625 8.125 C-4.63660156 6.83722656 -4.64820313 5.54945312 -4.66015625 4.22265625 C-4.53212333 0.07951094 -4.53212333 0.07951094 0 0 Z " fill="#048863" transform="translate(20.5625,67.9375)"/>
<path d="M0 0 C6.15234375 -0.09765625 6.15234375 -0.09765625 8 0 C9 1 9 1 9.09765625 3.28515625 C9.08605469 4.20167969 9.07445312 5.11820312 9.0625 6.0625 C9.05347656 6.98160156 9.04445312 7.90070313 9.03515625 8.84765625 C9.02355469 9.55792969 9.01195312 10.26820312 9 11 C8.01 11 7.02 11 6 11 C6 8.36 6 5.72 6 3 C5.01 3.495 5.01 3.495 4 4 C3.59270772 6.32156597 3.25561323 8.6568787 3 11 C2.01 11 1.02 11 0 11 C0 7.37 0 3.74 0 0 Z " fill="#048863" transform="translate(128,72)"/>
<path d="M0 0 C2.0625 0.4375 2.0625 0.4375 4 1 C4 3.31 4 5.62 4 8 C3.01 8 2.02 8 1 8 C1 10.64 1 13.28 1 16 C0.01 16 -0.98 16 -2 16 C-2 13.36 -2 10.72 -2 8 C-2.66 8 -3.32 8 -4 8 C-4 7.01 -4 6.02 -4 5 C-3.34 5 -2.68 5 -2 5 C-1.7834375 4.0409375 -1.7834375 4.0409375 -1.5625 3.0625 C-1 1 -1 1 0 0 Z " fill="#048863" transform="translate(211,67)"/>
<path d="M0 0 C0.94875 0.04125 1.8975 0.0825 2.875 0.125 C2.875 1.115 2.875 2.105 2.875 3.125 C1.885 3.62 1.885 3.62 0.875 4.125 C1.535 4.455 2.195 4.785 2.875 5.125 C2.917721 6.79111905 2.91563832 8.45882885 2.875 10.125 C1.875 11.125 1.875 11.125 -1.6875 11.1875 C-2.821875 11.166875 -3.95625 11.14625 -5.125 11.125 C-5.125 10.135 -5.125 9.145 -5.125 8.125 C-4.465 7.795 -3.805 7.465 -3.125 7.125 C-3.785 5.475 -4.445 3.825 -5.125 2.125 C-3.125 0.125 -3.125 0.125 0 0 Z " fill="#048863" transform="translate(152.125,71.875)"/>
<path d="M0 0 C0.99 0.33 1.98 0.66 3 1 C3 1.66 3 2.32 3 3 C3.66 3 4.32 3 5 3 C5 3.99 5 4.98 5 6 C4.34 6 3.68 6 3 6 C3 7.65 3 9.3 3 11 C3.66 11 4.32 11 5 11 C5 11.99 5 12.98 5 14 C3.33388095 14.042721 1.66617115 14.04063832 0 14 C-1.63909015 12.36090985 -1.43623081 10.37663301 -1.6875 8.125 C-1.79449219 7.24070312 -1.90148437 6.35640625 -2.01171875 5.4453125 C-2 3 -2 3 0 0 Z " fill="#048863" transform="translate(272,69)"/>
<path d="M0 0 C0.4125 0.5775 0.825 1.155 1.25 1.75 C3.03145903 4.04044733 4.8465815 6.05497684 7 8 C7.66 8 8.32 8 9 8 C8.33333333 11.33333333 7.66666667 14.66666667 7 18 C6.01 18 5.02 18 4 18 C3.67 16.02 3.34 14.04 3 12 C1.01508358 12.26676204 1.01508358 12.26676204 -1 13 C-1.33 13.99 -1.66 14.98 -2 16 C-2.99 16 -3.98 16 -5 16 C-5 15.34 -5 14.68 -5 14 C-4.34 14 -3.68 14 -3 14 C-3 13.01 -3 12.02 -3 11 C1.75 9.875 1.75 9.875 4 11 C3.67 9.68 3.34 8.36 3 7 C2.34 7 1.68 7 1 7 C0.67 4.69 0.34 2.38 0 0 Z M4 11 C5 14 5 14 5 14 Z " fill="#979686" transform="translate(11,21)"/>
<path d="M0 0 C0.33 0.66 0.66 1.32 1 2 C1.66 1.67 2.32 1.34 3 1 C4.54613014 1.08651631 6.08909387 1.24002636 7.625 1.4375 C8.85089844 1.59025391 8.85089844 1.59025391 10.1015625 1.74609375 C11.04128906 1.87177734 11.04128906 1.87177734 12 2 C12 1.34 12 0.68 12 0 C14.97 0.495 14.97 0.495 18 1 C14.54319097 3.76544722 10.85658398 5.84921278 7 8 C6.52949219 7.66226563 6.05898438 7.32453125 5.57421875 6.9765625 C4.95160156 6.53054687 4.32898437 6.08453125 3.6875 5.625 C3.07261719 5.18414063 2.45773438 4.74328125 1.82421875 4.2890625 C0.2347608 3.16589093 -1.38062171 2.07958553 -3 1 C-2.01 0.67 -1.02 0.34 0 0 Z " fill="#1E311E" transform="translate(30,25)"/>
<path d="M0 0 C0.99 0.33 1.98 0.66 3 1 C3 1.66 3 2.32 3 3 C3.66 3 4.32 3 5 3 C5 3.99 5 4.98 5 6 C4.34 6 3.68 6 3 6 C3 7.65 3 9.3 3 11 C3.66 11 4.32 11 5 11 C5 11.99 5 12.98 5 14 C3.35 14 1.7 14 0 14 C-2.47272727 5.41818182 -2.47272727 5.41818182 -1 1 C-0.67 0.67 -0.34 0.34 0 0 Z " fill="#048863" transform="translate(159,69)"/>
<path d="M0 0 C1.98 0 3.96 0 6 0 C6 0.33 6 0.66 6 1 C8.31 1.33 10.62 1.66 13 2 C13 1.34 13 0.68 13 0 C13.66 0 14.32 0 15 0 C15 1.98 15 3.96 15 6 C10.33333333 6 5.66666667 6 1 6 C0.67 4.02 0.34 2.04 0 0 Z " fill="#048863" transform="translate(146,53)"/>
<path d="M0 0 C2.51083114 1.25541557 2.87125446 2.50063488 4 5 C3.01 4.67 2.02 4.34 1 4 C1.33 4.66 1.66 5.32 2 6 C2.99 6.33 3.98 6.66 5 7 C4.8125 9.3125 4.8125 9.3125 4 12 C-0.03448276 15 -0.03448276 15 -3 15 C-2.8858134 13.06183265 -2.75826577 11.12444901 -2.625 9.1875 C-2.55539063 8.10855469 -2.48578125 7.02960937 -2.4140625 5.91796875 C-2 3 -2 3 0 0 Z " fill="#7A1912" transform="translate(29,8)"/>
<path d="M0 0 C0 0.66 0 1.32 0 2 C2.97 2.495 2.97 2.495 6 3 C4 5 4 5 1.1015625 5.265625 C-0.04570313 5.26046875 -1.19296875 5.2553125 -2.375 5.25 C-4.08816406 5.25773437 -4.08816406 5.25773437 -5.8359375 5.265625 C-8.82006883 5.01510533 -10.48940678 4.55829924 -13 3 C-12.67 2.34 -12.34 1.68 -12 1 C-7.96960118 0.06269795 -4.12580711 -0.0982335 0 0 Z " fill="#5B7527" transform="translate(40,54)"/>
<path d="M0 0 C0.433125 0.495 0.86625 0.99 1.3125 1.5 C2.99740483 3.33218192 2.99740483 3.33218192 6 3 C6 2.34 6 1.68 6 1 C6.99 1 7.98 1 9 1 C9 1.66 9 2.32 9 3 C7.68 3.33 6.36 3.66 5 4 C5 4.66 5 5.32 5 6 C1.85658007 7.57170996 -1.55771451 7.23175783 -5 7 C-5.99 6.67 -6.98 6.34 -8 6 C-8 5.34 -8 4.68 -8 4 C-9.32 3.67 -10.64 3.34 -12 3 C-12 2.34 -12 1.68 -12 1 C-11.01 1 -10.02 1 -9 1 C-9 1.66 -9 2.32 -9 3 C-7.02 3 -5.04 3 -3 3 C-3 3.66 -3 4.32 -3 5 C-2.01 5 -1.02 5 0 5 C0 3.35 0 1.7 0 0 Z " fill="#45683A" transform="translate(39,46)"/>
<path d="M0 0 C3.3 0 6.6 0 10 0 C10.33 0.66 10.66 1.32 11 2 C11.66 2 12.32 2 13 2 C13.33 2.99 13.66 3.98 14 5 C13 6 13 6 11.15234375 6.09765625 C9.1015625 6.06510417 7.05078125 6.03255208 5 6 C5 4.35 5 2.7 5 1 C4.01 1.495 4.01 1.495 3 2 C3.33 3.32 3.66 4.64 4 6 C2.68 5.67 1.36 5.34 0 5 C0 3.33333333 0 1.66666667 0 0 Z " fill="#048863" transform="translate(212,53)"/>
<path d="M0 0 C0.66 0 1.32 0 2 0 C2 1.98 2 3.96 2 6 C-2.29 6 -6.58 6 -11 6 C-11.33 5.34 -11.66 4.68 -12 4 C-11.67 3.34 -11.34 2.68 -11 2 C-7.37 2 -3.74 2 0 2 C0 1.34 0 0.68 0 0 Z " fill="#048863" transform="translate(208,53)"/>
<path d="M0 0 C2.33944736 0.28730055 4.6739143 0.61936779 7 1 C7 1.66 7 2.32 7 3 C7.66 3.33 8.32 3.66 9 4 C8.67 5.32 8.34 6.64 8 8 C5.83125748 7.49396008 4.00032373 7.00016187 2 6 C3 4 3 4 4 2 C3.01 2.495 3.01 2.495 2 3 C1.34444881 5.52733235 1.34444881 5.52733235 1 8 C-0.32 7.01 -1.64 6.02 -3 5 C-1.125 1.125 -1.125 1.125 0 0 Z " fill="#9A998C" transform="translate(15,16)"/>
<path d="M0 0 C1.32 0.66 2.64 1.32 4 2 C3.01 2.33 2.02 2.66 1 3 C1.99 3.33 2.98 3.66 4 4 C5.95542188 6.98459129 6 8.26414791 6 12 C2.62537285 11.45276317 0.91765 10.9451 -2 9 C-2.1875 5.875 -2.1875 5.875 -2 3 C-1.34 3 -0.68 3 0 3 C0 2.01 0 1.02 0 0 Z " fill="#B22E24" transform="translate(42,8)"/>
<path d="M0 0 C0.99 0 1.98 0 3 0 C3 5.28 3 10.56 3 16 C2.01 16 1.02 16 0 16 C0 10.72 0 5.44 0 0 Z " fill="#048863" transform="translate(264,67)"/>
<path d="M0 0 C0.99 0 1.98 0 3 0 C3 5.28 3 10.56 3 16 C2.01 16 1.02 16 0 16 C0 10.72 0 5.44 0 0 Z " fill="#048863" transform="translate(87,67)"/>
<path d="M0 0 C2.31 0 4.62 0 7 0 C7 0.99 7 1.98 7 3 C6.01 3 5.02 3 4 3 C3.67 5.64 3.34 8.28 3 11 C2.01 11 1.02 11 0 11 C0 7.37 0 3.74 0 0 Z " fill="#048863" transform="translate(167,72)"/>
<path d="M0 0 C2.31 0 4.62 0 7 0 C7 0.99 7 1.98 7 3 C6.01 3.33 5.02 3.66 4 4 C3.67 6.31 3.34 8.62 3 11 C2.01 11 1.02 11 0 11 C0 7.37 0 3.74 0 0 Z " fill="#048863" transform="translate(66,72)"/>
<path d="M0 0 C0.99 0 1.98 0 3 0 C3 4.95 3 9.9 3 15 C2.01 15 1.02 15 0 15 C0 10.05 0 5.1 0 0 Z " fill="#048863" transform="translate(141,68)"/>
<path d="M0 0 C0.99 0 1.98 0 3 0 C3 4.95 3 9.9 3 15 C2.01 15 1.02 15 0 15 C0 10.05 0 5.1 0 0 Z " fill="#048863" transform="translate(121,68)"/>
<path d="M0 0 C0.33 0 0.66 0 1 0 C1.33 2.64 1.66 5.28 2 8 C2.99 8 3.98 8 5 8 C5 7.34 5 6.68 5 6 C5.66 6 6.32 6 7 6 C7 6.66 7 7.32 7 8 C7.66 8 8.32 8 9 8 C9 8.66 9 9.32 9 10 C8.01 10.33 7.02 10.66 6 11 C5.67 11.66 5.34 12.32 5 13 C4.34 13 3.68 13 3 13 C3 12.34 3 11.68 3 11 C1.68 10.67 0.36 10.34 -1 10 C-0.67 6.7 -0.34 3.4 0 0 Z " fill="#9A883A" transform="translate(15,43)"/>
<path d="M0 0 C0.66 0.33 1.32 0.66 2 1 C1.34 1.66 0.68 2.32 0 3 C0.66 3.66 1.32 4.32 2 5 C1.72793135 6.6777567 1.38499891 8.34450469 1 10 C0.9629721 11.6662553 0.95240038 13.33401319 1 15 C0.67 14.34 0.34 13.68 0 13 C-0.99 12.67 -1.98 12.34 -3 12 C-2.67 10.02 -2.34 8.04 -2 6 C-2.66 5.67 -3.32 5.34 -4 5 C-2.68 3.35 -1.36 1.7 0 0 Z " fill="#F7F6F0" transform="translate(55,23)"/>
<path d="M0 0 C0 4 0 4 -1.375 5.75 C-3 7 -3 7 -5 7 C-4.67 8.98 -4.34 10.96 -4 13 C-4.66 13 -5.32 13 -6 13 C-6.59164379 9.59804823 -7 6.4434533 -7 3 C-2.61538462 0 -2.61538462 0 0 0 Z " fill="#C4C3B8" transform="translate(53,25)"/>
<path d="M0 0 C0.4125 0.45375 0.825 0.9075 1.25 1.375 C2.93416435 3.0914384 2.93416435 3.0914384 5.125 4.0625 C7 5 7 5 8 7 C7.01 7.495 7.01 7.495 6 8 C5.34786708 10.02463255 5.34786708 10.02463255 5 12 C4.67 11.01 4.34 10.02 4 9 C3.34 8.360625 2.68 7.72125 2 7.0625 C-0.04922976 4.94923181 -0.70125361 3.88788181 -1 1 C-0.67 0.67 -0.34 0.34 0 0 Z " fill="#DDDAC6" transform="translate(13,20)"/>
<path d="M0 0 C0.78375 0.04125 1.5675 0.0825 2.375 0.125 C1.385 1.61 1.385 1.61 0.375 3.125 C-0.285 2.795 -0.945 2.465 -1.625 2.125 C-1.563125 2.90875 -1.50125 3.6925 -1.4375 4.5 C-1.499375 5.36625 -1.56125 6.2325 -1.625 7.125 C-2.615 7.785 -3.605 8.445 -4.625 9.125 C-5.285 8.465 -5.945 7.805 -6.625 7.125 C-6.625 2.99052568 -4.22933891 0.20139709 0 0 Z " fill="#A9ABA2" transform="translate(57.625,15.875)"/>
<path d="M0 0 C1.32 0 2.64 0 4 0 C3.67 1.98 3.34 3.96 3 6 C2.34 5.67 1.68 5.34 1 5 C0.01 6.485 0.01 6.485 -1 8 C-1.99 8 -2.98 8 -4 8 C-2.66666667 5.33333333 -1.33333333 2.66666667 0 0 Z " fill="#CACABF" transform="translate(10,33)"/>
<path d="M0 0 C0.33 0.66 0.66 1.32 1 2 C1.66 1.67 2.32 1.34 3 1 C4.99960012 0.960008 7.00047242 0.95653201 9 1 C9 1.66 9 2.32 9 3 C9.66 3.33 10.32 3.66 11 4 C9.3125 5.125 9.3125 5.125 7 6 C4.5625 5.25 4.5625 5.25 2 4 C1.071875 3.62875 0.14375 3.2575 -0.8125 2.875 C-1.534375 2.58625 -2.25625 2.2975 -3 2 C-2.01 1.34 -1.02 0.68 0 0 Z " fill="#2E3829" transform="translate(30,25)"/>
<path d="M0 0 C0 0.99 0 1.98 0 3 C0.66 3 1.32 3 2 3 C2 5 2 7 2 9 C0.68 8.67 -0.64 8.34 -2 8 C-2 6.02 -2 4.04 -2 2 C-3.32 1.67 -4.64 1.34 -6 1 C-6.33 1.66 -6.66 2.32 -7 3 C-7 2.01 -7 1.02 -7 0 C-4.3333581 -1.33332095 -2.83319697 -0.67102033 0 0 Z " fill="#7B7B70" transform="translate(67,32)"/>
<path d="M0 0 C1.2065625 0.0309375 1.2065625 0.0309375 2.4375 0.0625 C2.4375 3.0325 2.4375 6.0025 2.4375 9.0625 C2.1075 7.7425 1.7775 6.4225 1.4375 5.0625 C0.1175 5.3925 -1.2025 5.7225 -2.5625 6.0625 C-2.5625 5.4025 -2.5625 4.7425 -2.5625 4.0625 C-2.8925 3.0725 -3.2225 2.0825 -3.5625 1.0625 C-2.5625 0.0625 -2.5625 0.0625 0 0 Z " fill="#972219" transform="translate(37.5625,5.9375)"/>
<path d="M0 0 C0.66 0.33 1.32 0.66 2 1 C1.6478759 3.64093077 1.34271564 4.71848358 -0.75 6.4375 C-3 7 -3 7 -5.75 5.75 C-6.4925 5.1725 -7.235 4.595 -8 4 C-8 3.34 -8 2.68 -8 2 C-5.69 2 -3.38 2 -1 2 C-0.67 1.34 -0.34 0.68 0 0 Z " fill="#A08E2A" transform="translate(59,49)"/>
<path d="M0 0 C1.77049689 -0.05410687 3.54146849 -0.09284119 5.3125 -0.125 C6.29863281 -0.14820313 7.28476562 -0.17140625 8.30078125 -0.1953125 C11 0 11 0 14 2 C11 4 11 4 7.8125 3.625 C6.884375 3.41875 5.95625 3.2125 5 3 C5 2.34 5 1.68 5 1 C3.35 1 1.7 1 0 1 C0 0.67 0 0.34 0 0 Z " fill="#C99828" transform="translate(35,53)"/>
<path d="M0 0 C2.31 0.66 4.62 1.32 7 2 C6.67 2.598125 6.34 3.19625 6 3.8125 C4.79212012 6.05386471 4.79212012 6.05386471 5 9 C3.02 7.68 1.04 6.36 -1 5 C-0.34 4.67 0.32 4.34 1 4 C0.67 2.68 0.34 1.36 0 0 Z " fill="#C7C5B8" transform="translate(23,25)"/>
<path d="M0 0 C2.475 0.99 2.475 0.99 5 2 C4.1875 5.4375 4.1875 5.4375 3 9 C2.01 9.33 1.02 9.66 0 10 C0.185625 9.278125 0.37125 8.55625 0.5625 7.8125 C1.01995307 4.87173027 0.73516357 2.85896942 0 0 Z " fill="#E6E4D7" transform="translate(17,34)"/>
<path d="M0 0 C0.99 0.66 1.98 1.32 3 2 C2.67 4.64 2.34 7.28 2 10 C1.34 10 0.68 10 0 10 C-0.66 11.32 -1.32 12.64 -2 14 C-2.66 14 -3.32 14 -4 14 C-3.6875 12.125 -3.6875 12.125 -3 10 C-2.01 9.34 -1.02 8.68 0 8 C1.01557588 4.6993784 1.1092904 3.32787119 0 0 Z " fill="#7C7A6F" transform="translate(61,18)"/>
<path d="M0 0 C1.98 0 3.96 0 6 0 C7.0625 1.875 7.0625 1.875 8 4 C7.67 4.66 7.34 5.32 7 6 C5.68 6 4.36 6 3 6 C3 4.68 3 3.36 3 2 C2.01 1.34 1.02 0.68 0 0 Z " fill="#326430" transform="translate(50,46)"/>
<path d="M0 0 C0.66 0 1.32 0 2 0 C2.33 3.96 2.66 7.92 3 12 C0.97954558 11.39816251 -1.02111039 10.72693904 -3 10 C-3.33 9.34 -3.66 8.68 -4 8 C-1.525 8.495 -1.525 8.495 1 9 C0.67 6.03 0.34 3.06 0 0 Z " fill="#751811" transform="translate(47,11)"/>
<path d="M0 0 C0.61875 0.86625 0.61875 0.86625 1.25 1.75 C3.01957355 4.02516599 4.92852378 5.99995399 7 8 C6.67 8.99 6.34 9.98 6 11 C5.34 11 4.68 11 4 11 C3.67 9.68 3.34 8.36 3 7 C2.34 7 1.68 7 1 7 C0.67 4.69 0.34 2.38 0 0 Z " fill="#7A796D" transform="translate(11,21)"/>
<path d="M0 0 C1.65 0 3.3 0 5 0 C5 0.99 5 1.98 5 3 C2 5 2 5 -1 5 C-0.67 3.35 -0.34 1.7 0 0 Z " fill="#B72F24" transform="translate(29,15)"/>
<path d="M0 0 C0.66 0 1.32 0 2 0 C2 2.64 2 5.28 2 8 C1.01 8 0.02 8 -1 8 C-1.04241723 5.66705225 -1.04092937 3.33297433 -1 1 C-0.67 0.67 -0.34 0.34 0 0 Z " fill="#F3F2F2" transform="translate(37,43)"/>
<path d="M0 0 C0 0.99 0 1.98 0 3 C-3.63 3 -7.26 3 -11 3 C-11 2.34 -11 1.68 -11 1 C-7.32589215 -0.17571451 -3.83070817 -0.07366746 0 0 Z " fill="#89B390" transform="translate(42,24)"/>
<path d="M0 0 C-0.33 1.98 -0.66 3.96 -1 6 C-1.66 6 -2.32 6 -3 6 C-3.33 7.65 -3.66 9.3 -4 11 C-4.625 9.1875 -4.625 9.1875 -5 7 C-4.34 6.01 -3.68 5.02 -3 4 C-3.66 3.34 -4.32 2.68 -5 2 C-2 0 -2 0 0 0 Z " fill="#959486" transform="translate(53,30)"/>
<path d="M0 0 C0.66 0 1.32 0 2 0 C2 0.66 2 1.32 2 2 C2.66 2.33 3.32 2.66 4 3 C2.68 3.33 1.36 3.66 0 4 C2.475 4.99 2.475 4.99 5 6 C5 6.99 5 7.98 5 9 C3.02 7.68 1.04 6.36 -1 5 C-0.67 3.35 -0.34 1.7 0 0 Z " fill="#F0EFE5" transform="translate(17,18)"/>
<path d="M0 0 C0 0.66 0 1.32 0 2 C-0.639375 2.12375 -1.27875 2.2475 -1.9375 2.375 C-2.618125 2.58125 -3.29875 2.7875 -4 3 C-4.33 3.66 -4.66 4.32 -5 5 C-7.0625 5.625 -7.0625 5.625 -9 6 C-8.1875 3.5625 -8.1875 3.5625 -7 1 C-4 0 -4 0 0 0 Z " fill="#13672E" transform="translate(50,44)"/>
<path d="M0 0 C3.375 0.25 3.375 0.25 7 1 C8.4375 3.0625 8.4375 3.0625 9 5 C7.68 5 6.36 5 5 5 C4.67 4.34 4.34 3.68 4 3 C1.97536745 2.34786708 1.97536745 2.34786708 0 2 C0 1.34 0 0.68 0 0 Z " fill="#12662D" transform="translate(25,44)"/>
<path d="M0 0 C2.475 0.495 2.475 0.495 5 1 C4.67 2.32 4.34 3.64 4 5 C2.68 4.67 1.36 4.34 0 4 C0 2.68 0 1.36 0 0 Z " fill="#ECEBE2" transform="translate(61,33)"/>
<path d="M0 0 C0.66 0.66 1.32 1.32 2 2 C1.34 3.32 0.68 4.64 0 6 C-1.32 5.34 -2.64 4.68 -4 4 C-3.67 3.01 -3.34 2.02 -3 1 C-2.01 0.67 -1.02 0.34 0 0 Z " fill="#848378" transform="translate(63,36)"/>
<path d="M0 0 C2.31 0 4.62 0 7 0 C6.67 1.32 6.34 2.64 6 4 C3.83125748 3.49396008 2.00032373 3.00016187 0 2 C0 1.34 0 0.68 0 0 Z " fill="#A9A89D" transform="translate(17,20)"/>
<path d="M0 0 C2 3 2 3 1.625 5.6875 C1.41875 6.450625 1.2125 7.21375 1 8 C0.01 7.67 -0.98 7.34 -2 7 C-1.34 4.69 -0.68 2.38 0 0 Z " fill="#C7C4AE" transform="translate(58,32)"/>
<path d="M0 0 C0.99 0 1.98 0 3 0 C3 0.66 3 1.32 3 2 C4.32 2 5.64 2 7 2 C7 2.99 7 3.98 7 5 C6.01 5 5.02 5 4 5 C4 4.34 4 3.68 4 3 C2.68 2.67 1.36 2.34 0 2 C0 1.34 0 0.68 0 0 Z " fill="#826645" transform="translate(27,47)"/>
<path d="M0 0 C1.485 0.99 1.485 0.99 3 2 C3.1875 4.625 3.1875 4.625 3 7 C2.67 6.34 2.34 5.68 2 5 C1.01 4.67 0.02 4.34 -1 4 C-0.67 2.68 -0.34 1.36 0 0 Z " fill="#FDFDF8" transform="translate(53,31)"/>
<path d="M0 0 C-0.99 1.485 -0.99 1.485 -2 3 C-2.66 2.67 -3.32 2.34 -4 2 C-4 2.66 -4 3.32 -4 4 C-4.99 3.67 -5.98 3.34 -7 3 C-7 2.34 -7 1.68 -7 1 C-4.53721199 -0.231394 -2.7204945 -0.07159196 0 0 Z " fill="#8D8C81" transform="translate(60,16)"/>
<path d="M0 0 C2 1 2 1 2 1 Z " fill="#048863" transform="translate(189,53)"/>
<path d="M0 0 C2 1 2 1 2 1 Z " fill="#048863" transform="translate(184,53)"/>
<path d="M0 0 C2 1 2 1 2 1 Z " fill="#048863" transform="translate(106,53)"/>
</svg>
